<?xml version="1.0" standalone="no"?><!DOCTYPE svg PUBLIC "-//W3C//DTD SVG 1.1//EN" "http://www.w3.org/Graphics/SVG/1.1/DTD/svg11.dtd"><svg t="1612926654127" class="icon" viewBox="0 0 1024 1024" version="1.1" xmlns="http://www.w3.org/2000/svg" p-id="2348" xmlns:xlink="http://www.w3.org/1999/xlink" width="200" height="200"><defs><style type="text/css"></style></defs><path d="M582.311824 539.710325m-312.743665 0a312.743665 312.743665 0 1 0 625.48733 0 312.743665 312.743665 0 1 0-625.48733 0Z" fill="#BAD4FF" p-id="2349"></path><path d="M512.011 97.425142c-228.592679 0-414.564858 186.00218-414.564858 414.554858a426.752001 426.752001 0 0 0 6.510076 71.000832c0 0.130002 0.250003 0.080001 0.300004 0.190002a13.66016 13.66016 0 0 0 13.070153 10.000117c7.634089 0 13.824162-6.186072 13.830162-13.820162a12.086142 12.086142 0 0 0-0.280003-1.330015l0.250003-0.110002a386.433529 386.433529 0 0 1-6.000071-66.000773c-0.02-213.692504 173.21203-386.914534 386.884534-386.914534s386.914534 173.282031 386.914534 387.004535-173.24203 386.924534-386.914534 386.924534c-142.801673 0-267.213131-77.580909-334.243917-192.692258 0-0.060001-0.090001-0.110001-0.110001-0.180002-0.170002-0.300004-0.390005-0.590007-0.560007-0.89001-3.462041-6.722079-11.717137-9.36411-18.439216-5.90307a13.69016 13.69016 0 0 0-7.421087 12.313145 13.526159 13.526159 0 0 0 2.760033 7.860092l-0.230003 0.140001c71.860842 123.531448 205.362407 207.002426 358.284199 207.002426 228.582679 0 414.564858-186.00218 414.564858-414.564858s-186.02218-414.584858-414.604859-414.584858z" fill="#3585F9" p-id="2350"></path><path d="M663.182772 483.579667l0.06-0.070001-130.231526-102.901206c-10.792126-10.567124-28.068329-10.518123-38.800454 0.110002l-136.901605 102.851205 0.080001 0.090001c-5.661066 5.029059-6.173072 13.69416-1.144013 19.355227s13.69516 6.173072 19.355227 1.144013c0.372004-0.330004 0.725008-0.680008 1.059012-1.049012l0.110001 0.110001 123.051442-89.111044v297.383485c0 7.633089 6.187073 13.820162 13.820162 13.820162s13.820162-6.187073 13.820162-13.820162v-297.633488l116.441365 89.411048 0.140001-0.150002c5.14006 5.560065 13.814162 5.900069 19.374227 0.760009 5.424064-5.015059 5.900069-13.425157 1.076013-19.020223-0.406005-0.454005-0.84001-0.88201-1.300015-1.280015h-0.01zM420.919933 314.91769h186.572186c7.633089 0 13.820162 6.187073 13.820162 13.820162s-6.187073 13.820162-13.820162 13.820162h-186.572186c-7.633089 0-13.820162-6.187073-13.820162-13.820162s6.187073-13.820162 13.820162-13.820162z" fill="#3585F9" p-id="2351"></path></svg>