<?xml version="1.0" standalone="no"?><!DOCTYPE svg PUBLIC "-//W3C//DTD SVG 1.1//EN" "http://www.w3.org/Graphics/SVG/1.1/DTD/svg11.dtd"><svg t="1612424156944" class="icon" viewBox="0 0 1024 1024" version="1.1" xmlns="http://www.w3.org/2000/svg" p-id="2184" xmlns:xlink="http://www.w3.org/1999/xlink" width="200" height="200"><defs><style type="text/css"></style></defs><path d="M489.8 542.1c117.4 0 212.6-102.5 212.6-228.9S607.2 84.3 489.8 84.3 277.2 186.8 277.2 313.2s95.2 228.9 212.6 228.9zM317.2 313.2c0-25.9 4.7-50.9 13.9-74.5 8.9-22.6 21.5-42.8 37.6-60.2 32.5-35 75.5-54.3 121-54.3s88.5 19.3 121 54.3c16.1 17.3 28.8 37.6 37.6 60.2 9.2 23.5 13.9 48.6 13.9 74.5s-4.7 50.9-13.9 74.5c-8.9 22.6-21.5 42.8-37.6 60.2-32.5 35-75.5 54.3-121 54.3s-88.5-19.3-121-54.3c-16.1-17.3-28.8-37.6-37.6-60.2-9.2-23.6-13.9-48.6-13.9-74.5zM679.9 558.6H299.7c-88.9 0-161.6 72.7-161.6 161.6v46.5c0 88.9 72.7 161.6 161.6 161.6H680c88.9 0 161.6-72.7 161.6-161.6v-46.5c-0.1-88.9-72.8-161.6-161.7-161.6z m121.6 208.1c0 32.3-12.7 62.8-35.8 85.8-23.1 23.1-53.5 35.8-85.8 35.8H299.7c-32.3 0-62.8-12.7-85.8-35.8-23.2-23-35.9-53.5-35.9-85.8v-46.5c0-32.3 12.7-62.8 35.8-85.8 23.1-23.1 53.5-35.8 85.8-35.8h380.3c32.3 0 62.8 12.7 85.8 35.8 23.1 23.1 35.8 53.5 35.8 85.8v46.5z" fill="#515151" p-id="2185"></path></svg>